<svg xmlns="http://www.w3.org/2000/svg" width="250.998" height="222.904" viewBox="0 0 511.998 444.904"><g transform="translate(-704 -318)"><g transform="translate(704 284.454)"><path d="M492.415,168.431,467.592,143.6A83.694,83.694,0,0,0,456.968,38.442a16.7,16.7,0,0,0-23.631,0L397.189,74.59c-55.1-44.073-134.208-43.785-188.939.953A83.657,83.657,0,0,0,102.462,85.709a16.7,16.7,0,0,0,0,23.63l23.631,23.631A49.661,49.661,0,0,0,158.934,147.4a49.638,49.638,0,0,0,14.433,32.835L197,203.875a16.7,16.7,0,0,0,23.63,0,83.579,83.579,0,0,0,20.35-84.745A49.762,49.762,0,0,1,267.9,132.969l35.45,35.451L267.9,203.874a16.7,16.7,0,0,0,0,23.631,83.581,83.581,0,0,0,105.163,10.633l24.819,24.82a66.842,66.842,0,1,0,94.532-94.527Z" fill="#fff"/><path d="M409.537,402.656,385.9,379.024a49.723,49.723,0,0,0-32.833-14.412,49.629,49.629,0,0,0-14.435-32.855L315,308.126a16.7,16.7,0,0,0-23.631,0,83.46,83.46,0,0,0-20.421,84.741A49.672,49.672,0,0,1,244.1,379.024l-35.45-35.451,35.45-35.454a16.7,16.7,0,0,0,0-23.631,83.58,83.58,0,0,0-105.163-10.633l-24.819-24.82a66.845,66.845,0,1,0-94.531,94.536L44.4,368.387A83.584,83.584,0,0,0,55.032,473.554a16.7,16.7,0,0,0,23.63,0l36.149-36.149a150.519,150.519,0,0,0,188.938-.951,83.611,83.611,0,0,0,105.787-10.168,16.705,16.705,0,0,0,0-23.63Z" fill="#fff"/></g></g></svg>