<svg xmlns="http://www.w3.org/2000/svg" width="250.262" height="125.578" viewBox="0 0 498.262 254.578"><g transform="translate(5 -119.342)"><g transform="translate(-5)"><path d="M206.2,119.342,0,373.92H221.8l95.3-117.658ZM219.59,230.766,206.2,283.225,192.8,230.766l-52.157,19.027,65.551-80.93,65.552,80.93Z" fill="#fff"/><path d="M1166,496l-13.333-53.333L1101,461.333,1166,381l66,80.333-52-18.667Z" transform="translate(-960 -211.658)" fill="#9ad1d4" stroke="#9ad1d4" stroke-width="1"/><path d="M372.152,224.391,251.04,373.918l242.222,0Zm0,96.257-7.867-30.812-30.637,11.176,38.5-47.535,38.5,47.535-30.635-11.176Z" transform="translate(5)" fill="#fff"/><path d="M385.667,290.675,415.5,301.592,377,253.842l-38.5,47.75,30.25-10.917L377,321.092Z" fill="#9ad1d4" stroke="#9ad1d4" stroke-width="1"/></g></g></svg>